<!-- <svg xmlns="http://www.w3.org/2000/svg" viewBox="0 0 1440 320"><path fill="#4ade80" fill-opacity="1" d="M0,224L60,240C120,256,240,288,360,261.3C480,235,600,149,720,144C840,139,960,213,1080,208C1200,203,1320,117,1380,74.7L1440,32L1440,0L1380,0C1320,0,1200,0,1080,0C960,0,840,0,720,0C600,0,480,0,360,0C240,0,120,0,60,0L0,0Z"></path></svg> -->
<!-- <svg xmlns="http://www.w3.org/2000/svg" viewBox="0 0 1440 320"><path fill="#4ade80" fill-opacity="1" d="M0,0L1440,128L1440,0L0,0Z"></path></svg> -->
<svg xmlns="http://www.w3.org/2000/svg" viewBox="0 0 1440 320"><path fill="#35cc86" fill-opacity="1" d="M0,32L120,32C240,32,480,32,720,69.3C960,107,1200,181,1320,218.7L1440,256L1440,0L1320,0C1200,0,960,0,720,0C480,0,240,0,120,0L0,0Z"></path></svg>