<svg xmlns="http://www.w3.org/2000/svg" version="1.1" xmlns:xlink="http://www.w3.org/1999/xlink" xmlns:svgjs="http://svgjs.dev/svgjs" width="1440" height="560" preserveAspectRatio="none" viewBox="0 0 1440 560">
    <g mask="url(&quot;#SvgjsMask1527&quot;)" fill="none">
        <g transform="translate(-14.4, -280)" stroke-linecap="round" stroke="url(&quot;#SvgjsLinearGradient1528&quot;)">
            <path d="M10 73.65 L10 486.36" stroke-width="5"></path>
            <path d="M30 180.66 L30 379.35" stroke-width="5"></path>
            <path d="M50 199.97 L50 360.02" stroke-width="5"></path>
            <path d="M70 60.32 L70 499.68" stroke-width="5"></path>
            <path d="M90 161 L90 399" stroke-width="5"></path>
            <path d="M110 247 L110 313" stroke-width="5"></path>
            <path d="M130 194 L130 366" stroke-width="5"></path>
            <path d="M150 108.73 L150 451.27" stroke-width="5"></path>
            <path d="M170 34.45 L170 525.55" stroke-width="5"></path>
            <path d="M190 124.3 L190 435.7" stroke-width="5"></path>
            <path d="M210 149.58 L210 410.42" stroke-width="5"></path>
            <path d="M230 215.12 L230 344.88" stroke-width="5"></path>
            <path d="M250 35.53 L250 524.47" stroke-width="5"></path>
            <path d="M270 86.68 L270 473.32" stroke-width="5"></path>
            <path d="M290 92.47 L290 467.52" stroke-width="5"></path>
            <path d="M310 71.48 L310 488.52" stroke-width="5"></path>
            <path d="M330 230.32 L330 329.68" stroke-width="5"></path>
            <path d="M350 171.49 L350 388.51" stroke-width="5"></path>
            <path d="M370 222.84 L370 337.16" stroke-width="5"></path>
            <path d="M390 109.66 L390 450.34" stroke-width="5"></path>
            <path d="M410 42.06 L410 517.94" stroke-width="5"></path>
            <path d="M430 115.44 L430 444.56" stroke-width="5"></path>
            <path d="M450 203.38 L450 356.62" stroke-width="5"></path>
            <path d="M470 189.75 L470 370.25" stroke-width="5"></path>
            <path d="M490 148.87 L490 411.13" stroke-width="5"></path>
            <path d="M510 172.37 L510 387.63" stroke-width="5"></path>
            <path d="M530 214.02 L530 345.98" stroke-width="5"></path>
            <path d="M550 59.74 L550 500.26" stroke-width="5"></path>
            <path d="M570 55.17 L570 504.83" stroke-width="5"></path>
            <path d="M590 161.81 L590 398.19" stroke-width="5"></path>
            <path d="M610 31.56 L610 528.43" stroke-width="5"></path>
            <path d="M630 44.77 L630 515.23" stroke-width="5"></path>
            <path d="M650 84.57 L650 475.43" stroke-width="5"></path>
            <path d="M670 102.97 L670 457.03" stroke-width="5"></path>
            <path d="M690 41.91 L690 518.1" stroke-width="5"></path>
            <path d="M710 241.19 L710 318.81" stroke-width="5"></path>
            <path d="M730 18.81 L730 541.18" stroke-width="5"></path>
            <path d="M750 36.44 L750 523.56" stroke-width="5"></path>
            <path d="M770 213.99 L770 346.01" stroke-width="5"></path>
            <path d="M790 35.79 L790 524.21" stroke-width="5"></path>
            <path d="M810 251.13 L810 308.88" stroke-width="5"></path>
            <path d="M830 107.84 L830 452.15" stroke-width="5"></path>
            <path d="M850 248.03 L850 311.96" stroke-width="5"></path>
            <path d="M870 140.04 L870 419.96" stroke-width="5"></path>
            <path d="M890 29.31 L890 530.68" stroke-width="5"></path>
            <path d="M910 128.98 L910 431.02" stroke-width="5"></path>
            <path d="M930 244.46 L930 315.54" stroke-width="5"></path>
            <path d="M950 193.06 L950 366.94" stroke-width="5"></path>
            <path d="M970 127.85 L970 432.15" stroke-width="5"></path>
            <path d="M990 194.83 L990 365.17" stroke-width="5"></path>
            <path d="M1010 249.6 L1010 310.39" stroke-width="5"></path>
            <path d="M1030 235.03 L1030 324.97" stroke-width="5"></path>
            <path d="M1050 69.46 L1050 490.54" stroke-width="5"></path>
            <path d="M1070 96.9 L1070 463.1" stroke-width="5"></path>
            <path d="M1090 77.9 L1090 482.1" stroke-width="5"></path>
            <path d="M1110 198.91 L1110 361.09" stroke-width="5"></path>
            <path d="M1130 13.15 L1130 546.85" stroke-width="5"></path>
            <path d="M1150 123.97 L1150 436.03" stroke-width="5"></path>
            <path d="M1170 24.75 L1170 535.25" stroke-width="5"></path>
            <path d="M1190 128.28 L1190 431.72" stroke-width="5"></path>
            <path d="M1210 11.49 L1210 548.51" stroke-width="5"></path>
            <path d="M1230 64.42 L1230 495.58" stroke-width="5"></path>
            <path d="M1250 26.06 L1250 533.94" stroke-width="5"></path>
            <path d="M1270 73.77 L1270 486.23" stroke-width="5"></path>
            <path d="M1290 246.65 L1290 313.35" stroke-width="5"></path>
            <path d="M1310 42.6 L1310 517.39" stroke-width="5"></path>
            <path d="M1330 203.18 L1330 356.82" stroke-width="5"></path>
            <path d="M1350 97.5 L1350 462.5" stroke-width="5"></path>
            <path d="M1370 121.69 L1370 438.31" stroke-width="5"></path>
            <path d="M1390 135.19 L1390 424.81" stroke-width="5"></path>
            <path d="M1410 222.85 L1410 337.14" stroke-width="5"></path>
            <path d="M1430 233.03 L1430 326.98" stroke-width="5"></path>
        </g>
    </g>
    <defs>
        <mask id="SvgjsMask1527">
            <rect width="1440" height="560" fill="#ffffff"></rect>
        </mask>
        <linearGradient x1="0" y1="280" x2="1440" y2="280" gradientUnits="userSpaceOnUse" id="SvgjsLinearGradient1528">
            <stop stop-color="#4ade80" offset="0"></stop>
            <stop stop-color="#263F30" offset="1"></stop>
        </linearGradient>
    </defs>
</svg>